<?xml version="1.0" encoding="UTF-8"?>
<svg id="Layer_1" xmlns="http://www.w3.org/2000/svg" version="1.1" viewBox="0 0 1000 1000">
  <!-- Generator: Adobe Illustrator 30.3.0, SVG Export Plug-In . SVG Version: 2.1.3 Build 182)  -->
  <defs>
    <style>
      .st0 {
        fill: #002f2c;
      }

      .st1 {
        fill: #8cb800;
      }
    </style>
  </defs>
  <path class="st1" d="M390.8,422.85l8.69,20.27c.44,1.03,1.63,1.53,2.67,1.11l24.29-9.69c.88-.35,1.72.54,1.14,1.21l-16.25,18.81c-.81.94-.62,2.37.4,3.07l22.65,15.49c.79.54.3,1.78-.64,1.63l-28.11-4.32c-1.14-.18-2.21.62-2.37,1.77l-3.6,26.04c-.14.99-1.5,1.14-1.86.21l-9.37-24.73c-.41-1.07-1.61-1.61-2.68-1.2l-23.77,9.13c-.82.31-1.51-.68-.93-1.34l16.33-18.62c.8-.91.65-2.3-.32-3.03l-17.97-13.42c-.62-.46-.1-1.47.7-1.37l23.4,2.87c1.1.13,2.11-.62,2.3-1.71l3.72-21.99c.14-.82,1.26-.96,1.59-.19Z"/>
  <g>
    <path class="st0" d="M641.62,507.08s-.08.03-.12.04c-.07.02-.12.05-.18.07-8.21,3.04-15.95,6.15-23.4,9.06-.64.25-1.3.5-1.94.75-.04.02-.09.03-.13.05-7.27,2.82-14.27,5.43-21.24,7.59v.02c-1.38.42-2.74.83-4.12,1.22-.04.01-.08.02-.12.04-6.17,1.76-12.34,3.13-18.6,3.89-2.04.26-4.09.46-6.15.59-.04,0-.08,0-.11,0-2.49.15-5,.22-7.54.17-2.94-.05-5.72-.27-8.34-.64-2.86-.4-5.53-.99-8.06-1.69-4.95-1.4-9.28-3.38-13.05-5.73-3.58-2.22-6.65-4.78-9.29-7.5-3.76-3.84-6.64-8.04-8.88-12.08-5.93-10.81-7.12-20.69-7.12-20.69v32.49c0,9.27,1.98,18.48,6.17,26.74.3.59.62,1.19.95,1.79,1.14,2.07,2.46,4.18,3.96,6.25,3.53,4.86,8.16,9.58,14.21,13.34,2.31,1.44,4.85,2.74,7.59,3.84,4.01,1.64,8.49,2.87,13.52,3.58,2.62.37,5.4.59,8.34.64.58.02,1.19.02,1.77.02.04,0,.08,0,.12,0,4.04,0,7.99-.27,11.92-.78,4.26-.52,8.46-1.32,12.65-2.34.04,0,.08-.02.12-.03,3.35-.8,6.71-1.74,10.08-2.78v-.02c5.01-1.55,10.05-3.34,15.18-5.27.04-.02.09-.03.13-.05,2.65-.99,5.31-2.02,8.01-3.07,5.65-2.21,11.47-4.53,17.52-6.84.04-.02.09-.03.13-.05,1.9-.73,3.81-1.46,5.76-2.17,6.23-2.31,12.75-4.58,19.62-6.7.04-.01.08-.02.12-.04l5.99-42.12s-.09.02-.13.04c-9,2.58-17.38,5.44-25.3,8.38Z"/>
    <path class="st0" d="M703.86,410.24s-.07,0-.11.01c-8.8,1.2-17.01,2.78-24.78,4.62-.04,0-.08.02-.12.03-8.95,2.15-17.28,4.61-25.15,7.25-.04.01-.08.03-.12.04-4.21,1.4-8.29,2.86-12.25,4.33-4.54,1.69-8.93,3.38-13.2,5.07-.04.02-.08.03-.12.05-3.43,1.34-6.79,2.66-10.08,3.94-5.26,2.06-10.37,4.01-15.43,5.77-.04.01-.08.03-.12.04-2.61.92-5.2,1.77-7.77,2.57v.02c-5.78,1.79-11.52,3.29-17.33,4.31-.04,0-.08.02-.12.02-1.79.32-3.59.6-5.4.82-4.53.58-9.11.85-13.81.77-1.81-.03-3.54-.12-5.22-.28-1.07-.08-2.11-.2-3.13-.35-7.97-1.12-14.59-3.56-20.09-6.82-.35-.18-.69-.38-1.02-.6-8.62-5.37-14.36-12.67-18.17-19.59-.62-1.14-1.19-2.26-1.7-3.36v-.02c-4.46-9.41-5.42-17.32-5.42-17.32,0,0-1.98-15.43-6.17-23.7-.3-.59-.62-1.19-.95-1.79-1.3-2.36-2.82-4.75-4.6-7.1-3.44-4.56-7.87-8.94-13.57-12.49-2.51-1.57-5.28-2.96-8.31-4.13-3.83-1.5-8.07-2.62-12.8-3.29-2.62-.37-5.4-.59-8.34-.64-.85-.02-1.7-.02-2.54,0-3.81.02-7.56.28-11.27.77-4.51.55-8.99,1.42-13.44,2.52-3.14.77-6.27,1.65-9.41,2.62v.02c-5.27,1.62-10.56,3.53-15.98,5.57-2.42.92-4.86,1.86-7.34,2.82-5.9,2.31-11.97,4.73-18.32,7.15-1.67.63-3.36,1.27-5.08,1.91-6.47,2.39-13.24,4.75-20.41,6.94-7.47,2.29-15.36,4.4-23.78,6.17h-.03c-.43.1-.89.18-1.34.28-.71.14-1.43.29-2.15.43,0,0,0,0,0,0-12.75,3.28-22.75,13.39-25.87,26.19l-19.67,138.45c-.05.52-.08,1.02-.08,1.55-.03.37-.03.74-.03,1.12,0,13.89,7.89,25.94,19.44,31.87,5.28,2.75,11.33,4.2,17.76,3.97.09,0,.17-.02.26-.03,1.95-.32,3.89-.65,5.8-1.02,1.34-.25,2.67-.5,3.98-.77,7.44-1.5,14.44-3.26,21.11-5.18,8.91-2.57,17.2-5.42,25.04-8.32.13-.05.27-.1.4-.15,8.06-2.99,15.66-6.05,23-8.91.89-.35,1.76-.69,2.64-1.02,7.05-2.74,13.89-5.28,20.68-7.37v-.02c1.6-.5,3.21-.97,4.81-1.42,5.98-1.67,11.95-2.98,18.04-3.73,2.26-.3,4.53-.5,6.82-.62,2.31-.15,4.63-.2,6.99-.15,2.94.05,5.72.27,8.34.64,3.04.43,5.9,1.05,8.57,1.84,4.73,1.4,8.89,3.31,12.54,5.58,3.79,2.36,7.02,5.08,9.78,7.99,3.51,3.71,6.25,7.72,8.39,11.6,1.98,3.6,3.43,7.06,4.48,10.07,1.59,4.54,2.38,9.31,2.78,14.1.29,3.47.91,6.91,1.96,10.23l.05.16c1.09,3.39,2.67,7.44,4.96,11.62,3.34,6.07,8.17,12.44,15.13,17.53.97.72,1.99,1.4,3.04,2.06,5.42,3.38,11.95,5.97,19.87,7.24.04,0,.08.01.12.02.37.06.74.12,1.12.17,2.62.37,5.4.59,8.34.63,4.7.08,9.28-.18,13.81-.77.28-.03.58-.07.87-.12.04,0,.08-.01.11-.02,5.48-.72,10.89-1.9,16.3-3.38l2.11-14.85,3.87-27.26c-.14.04-.28.09-.42.13v.02c-5.34,1.66-10.64,3.05-16,4.07-.04,0-.08.02-.12.02-2.24.42-4.48.77-6.74,1.05-4.53.58-9.11.85-13.81.77-1.3-.02-2.58-.08-3.82-.18-.04,0-.08,0-.11,0-1.52-.1-2.99-.25-4.41-.45-7.4-1.04-13.62-3.23-18.89-6.12-.75-.42-1.5-.85-2.22-1.3-8.62-5.37-14.36-12.67-18.17-19.59-.23-.43-.47-.89-.69-1.32v-.02c-5.35-10.28-6.44-19.36-6.44-19.36,0,0-1.98-15.43-6.17-23.7-.3-.59-.62-1.19-.95-1.79-1.02-1.86-2.19-3.76-3.51-5.63-3.59-5.08-8.36-10.03-14.66-13.96-2.16-1.35-4.51-2.57-7.07-3.64-4.13-1.74-8.79-3.04-14.04-3.78-2.62-.37-5.4-.58-8.34-.64-.42-.02-.82-.02-1.24-.02-4.26-.02-8.44.25-12.57.79-4.06.5-8.07,1.25-12.08,2.21-3.59.84-7.17,1.82-10.76,2.94v.02c-4.83,1.49-9.68,3.21-14.61,5.05-2.88,1.07-5.77,2.19-8.71,3.34-5.47,2.14-11.1,4.38-16.95,6.62-2.12.82-4.26,1.64-6.45,2.44-6.07,2.24-12.39,4.45-19.05,6.52-1.52.48-3.06.94-4.61,1.39-6.5,1.92-13.32,3.68-20.56,5.2-3.66.78-7.43,1.5-11.31,2.14-6.71,1.11-12.58-4.57-11.62-11.3l14.53-102.19c.69-4.88,4.39-8.78,9.21-9.81,5.92-1.27,11.58-2.69,17.01-4.23,8.07-2.27,15.64-4.8,22.83-7.4.87-.32,1.74-.62,2.59-.95.33-.12.65-.23.99-.35,8.21-3.04,15.95-6.15,23.4-9.06.42-.17.85-.33,1.27-.48,7.56-2.94,14.83-5.67,22.05-7.91v-.02c1.15-.35,2.31-.7,3.46-1.04,6.44-1.86,12.85-3.31,19.39-4.11,1.82-.23,3.66-.42,5.5-.53,2.74-.2,5.5-.28,8.31-.23,2.94.05,5.72.27,8.34.63,2.57.37,5.01.87,7.32,1.49,5.27,1.42,9.83,3.48,13.79,5.93,3.28,2.04,6.13,4.36,8.64,6.84,4.06,4.03,7.17,8.46,9.53,12.75,1.01,1.83,1.88,3.64,2.63,5.38,2.67,6.18,4.19,12.8,4.8,19.5.21,2.29.52,4.99.95,6.58,0,.04.02.07.03.11,1.02,3.84,2.81,9.11,5.83,14.61,3.16,5.73,7.62,11.72,13.96,16.63,1.32,1.05,2.72,2.02,4.21,2.96,5.13,3.19,11.25,5.68,18.6,7.02.82.15,1.65.28,2.51.4,2.62.37,5.4.59,8.34.64,4.53.08,8.96-.17,13.34-.72.04,0,.08,0,.13-.01.11-.01.23-.02.34-.04,7.71-.95,15.24-2.79,22.85-5.15v-.02c.59-.18,1.15-.37,1.74-.55.04-.01.09-.03.13-.04,7.01-2.25,14.09-4.92,21.45-7.79,1.32-.52,2.66-1.04,4-1.57.04-.02.09-.04.13-.05,6.18-2.42,12.57-4.95,19.27-7.44,2.04-.75,4.11-1.5,6.22-2.26.04-.02.09-.03.13-.04,7.89-2.78,16.25-5.45,25.23-7.81.04-.01.08-.02.12-.03,7.79-2.04,16.03-3.84,24.86-5.27.04,0,.08-.01.12-.02,7.7-1.23,15.85-2.17,24.51-2.74l5.77-40.65c-8.62.38-16.74,1.15-24.43,2.21Z"/>
  </g>
</svg>