<?xml version="1.0" encoding="UTF-8"?>
<svg id="Layer_1" xmlns="http://www.w3.org/2000/svg" version="1.1" viewBox="0 0 1000 1000">
  <!-- Generator: Adobe Illustrator 30.3.0, SVG Export Plug-In . SVG Version: 2.1.3 Build 182)  -->
  <defs>
    <style>
      .st0 {
        fill: #02304a;
      }

      .st1 {
        fill: #c1131f;
      }
    </style>
  </defs>
  <g>
    <path class="st0" d="M500,606.55v-1.1c0,.35,0,.73-.03,1.1l.03,2.4v-2.4Z"/>
    <polygon class="st0" points="500 517.25 500.03 519.68 500 514 500 517.25"/>
    <path class="st0" d="M500,393.73v.6l.03-2.05c-.03.47-.03.98-.03,1.45Z"/>
    <path class="st0" d="M701.99,397.69c-9.51,3-18.66,6.24-27.55,9.59-9.41,3.54-18.56,7.17-27.55,10.74-9.28,3.68-18.41,7.27-27.55,10.58-9.12,3.3-18.26,6.27-27.55,8.78-8.99,2.44-18.12,4.43-27.55,5.76-3.29.46-6.61.88-9.98,1.18-31.5,1.17-54.14-20.75-54.27-49.98v33.27l-.03-36.55c.03-.57.03-1.17.03-1.73,0-29.36-22.67-51.43-54.27-50.27-52.98,4.7-94.13,30.22-149.85,47.21l-2.09.86c-9.78,4.44-16.95,12.83-20.89,22.88-1.68,4.29-2.43,8.89-2.43,13.5v7.03s0,5.39,0,5.39v117.56c0,4.26.63,8.36,1.83,12.2,3.44,11.19,11.54,20.37,22.04,25.26,5.3,2.46,11.19,3.85,17.44,3.85h.07c3.39,0,6.76-.61,9.95-1.78,3.99-1.47,7.93-2.97,11.81-4.46h.03c38.16-14.82,72.21-30.46,112.11-33.99,31.44-1.2,54.02,20.66,54.27,49.79l-.03-40.43v-.85c.03-.54.03-1.07,0-1.58.03-.22.03-.44,0-.63-.66-28.73-23.11-50.14-54.24-48.94-33.9,3-63.57,14.73-95.17,27.25-12.38,4.94-25.03,9.97-38.35,14.63-8.73,3.06-17.88-3.4-17.88-12.66v-98.65c0-7.69,4.93-14.48,12.21-16.94,15.07-5.09,29.27-10.71,43.1-16.19,31.91-12.68,61.87-24.66,96.09-27.69,31.6-1.17,54.24,20.88,54.27,50.23v1.8l.03,2.36c-.03.38-.03.73-.03,1.1v1.29c.32,29.04,22.93,50.8,54.27,49.6,3.37-.3,6.69-.71,9.98-1.17,9.43-1.33,18.56-3.32,27.55-5.75,9.29-2.51,18.43-5.48,27.55-8.78,9.13-3.3,18.27-6.89,27.55-10.57,8.99-3.56,18.14-7.19,27.55-10.73,8.89-3.34,18.04-6.58,27.55-9.58,8.13-2.56,16.5-4.97,25.24-7.07,1.35-.32,2.31-1.52,2.31-2.91v-37.63c0-1.94-1.82-3.38-3.7-2.92-8.24,2.02-16.15,4.3-23.85,6.73Z"/>
    <path class="st0" d="M619.35,515c-9.12,3.3-18.26,6.26-27.55,8.78-8.99,2.43-18.12,4.43-27.55,5.76-3.29.46-6.61.88-9.98,1.17-31.09,1.2-53.58-20.18-54.24-48.88v40.68c0,.19-.03.38,0,.57-.03.38-.03.79-.03,1.17v.13c0,.28,0,.57.03.85-.03.03,0,.06,0,.06-.03.13-.03.25,0,.35.66,28.7,23.15,50.08,54.24,48.88,3.37-.3,6.69-.71,9.98-1.17,9.43-1.33,18.56-3.32,27.55-5.76,9.29-2.52,18.43-5.48,27.55-8.78,9.13-3.3,18.27-6.9,27.55-10.58,8.37-3.32,16.88-6.7,25.61-10.01,1.16-.44,1.94-1.56,1.94-2.8v-37.37c0-2.1-2.11-3.55-4.07-2.81-7.99,3.05-15.79,6.14-23.48,9.19-9.28,3.68-18.41,7.27-27.55,10.57Z"/>
    <path class="st0" d="M554.27,617.15c-31.09,1.2-53.58-20.18-54.24-48.88v40.68c-.03.47-.03,1.07-.03,1.55v.5c.13,29.2,22.8,51.15,54.27,49.95,3.37-.3,6.69-.71,9.98-1.18,8.65-1.22,17.05-3,25.32-5.16,1.32-.35,2.23-1.54,2.23-2.91v-37.6c0-1.95-1.84-3.39-3.73-2.91-7.78,1.99-15.69,3.63-23.82,4.77-3.29.46-6.61.88-9.98,1.17Z"/>
  </g>
  <polygon class="st1" points="387 420.88 403 444.84 431.31 442.18 413.38 464.45 423.59 489.77 396.38 482.11 371.27 504.09 373.96 473.3 345.34 458.62 378.52 449.4 387 420.88"/>
</svg>