<?xml version="1.0" encoding="UTF-8"?>
<svg id="Layer_1" xmlns="http://www.w3.org/2000/svg" version="1.1" viewBox="0 0 1000 1000">
  <!-- Generator: Adobe Illustrator 30.3.0, SVG Export Plug-In . SVG Version: 2.1.3 Build 182)  -->
  <defs>
    <style>
      .st0 {
        fill: #fff;
      }

      .st1 {
        fill: #7fb900;
      }
    </style>
  </defs>
  <path class="st1" d="M374.43,466.5l12.4,24.32c.2.38.67.54,1.05.34l28.26-14.6c.51-.26,1.01.36.64.8l-21.66,25.73c-.23.28-.24.68-.03.97l16.37,21.63c.31.41-.09.97-.58.81l-26.17-8.63c-.33-.11-.7.02-.89.31l-18.57,28.03c-.31.48-1.05.18-.95-.38l5.63-30.67c.08-.43-.22-.84-.65-.91l-27.47-4.09c-.54-.08-.61-.83-.1-1.01l29.75-10.78c.3-.11.5-.38.51-.69l1.46-30.96c.03-.54.75-.69.99-.21h.01Z"/>
  <g>
    <path class="st0" d="M613.03,398c-25.92,17.69-55.31,37.74-86.61,40.11-10.65.92-21.02-2.27-29.18-8.97-8.05-6.61-13.1-15.9-14.22-26.2l-.05-.29c-1.25-9.75-3.28-15.13-8.71-23.05-7.42-10.69-21.38-17.33-35.76-17.33-1.53,0-3.07.08-4.61.23-25.23,2.25-48.78,16.3-70.73,30.5-11.76,7.46-21.5,14.44-31.82,21.83-4.99,3.58-10.15,7.27-15.88,11.28-7.99,5.53-15.49,10.45-22.92,15.04-.57.45-2.49,1.54-4.92,2.94-3.89,2.23-8.73,5-11.08,6.82-7.99,6.94-12.87,16.55-13.73,27.07v163.71c-.37,15.03,11.1,28.65,26.11,31.02,5.39.92,11.34.33,16.35-1.61,1.59-.53,5.47-2.88,7.78-4.29,1.45-.88,1.86-1.13,2.05-1.2,8.39-5.06,17.74-11.12,26.34-17.06,5.73-4,11.03-7.78,16.15-11.43,11.97-8.54,23.27-16.6,36.65-25.01,26.32-16.44,52.2-30.91,79.42-27.5,16.8,2.13,30.34,16.46,32.93,34.85,1.39,15.69,7.75,26.49,20,34,12.28,7.23,33.91,13.84,79.7-12.16v-46.81c-16.06,9.6-35.29,19.58-56.49,21.49-22.51,2.41-41.99-11.41-45.3-32.15-.16-.99-.24-2-.31-2.97l-.05-.64c-2.09-25.89-21.55-41.89-48.4-39.8-17.84,1.43-34.6,9.41-47.19,16.2-19.42,10.73-37.53,23.54-55.05,35.93-17.01,12.03-34.59,24.47-53.44,35.06-2.37,1.33-5.3,1.48-7.68.16-2.42-1.35-3.87-3.83-3.87-6.59v-122.45c0-5.05,2.65-9.72,6.97-12.34,13.85-8.41,27.33-18.01,40.37-27.3,6.75-4.81,13.73-9.78,20.54-14.43,1.45-.94,2.94-1.92,4.47-2.92,31.24-20.46,78.45-51.39,111.54-23.43,10.69,9.5,12.46,18.63,14.17,27.45,1.74,8.98,3.38,17.46,13.67,26.45,8.29,7.21,20.06,10.63,33.1,9.61,33.6-3.12,69.31-28.67,100.82-51.21,8.46-6.05,16.44-11.76,23.99-16.76,28.19-18.99,54.05-32.52,79.03-41.37v-45.6c-6.79,2.25-13.67,4.84-20.44,7.72h0c-35.45,14.91-67.2,37.21-94.18,56.94-3.14,2.11-6.31,4.27-9.54,6.47h0Z"/>
    <path class="st0" d="M511.87,521.05c-10.81-6.12-15.97-15.98-18.21-21.87,1.6,9.7,4.1,22.99,5.55,28.82,3.29,13.24,11.88,24,24.19,30.29,12.46,6.37,28,7.75,43.75,3.87,31.16-7.67,55.81-25.7,81.9-44.79,12.51-9.15,25.45-18.62,39.13-26.8v-46.87c-14.55,8.59-30.4,19.14-48.44,32.23-3.04,2.14-6.11,4.32-9.2,6.52-20.32,14.46-41.34,29.42-64.41,37.84-22.45,8.19-40.71,8.45-54.28.77h.02Z"/>
  </g>
</svg>