<?xml version="1.0" encoding="UTF-8"?>
<svg id="Layer_1" xmlns="http://www.w3.org/2000/svg" version="1.1" viewBox="0 0 1000 1000">
  <!-- Generator: Adobe Illustrator 30.3.0, SVG Export Plug-In . SVG Version: 2.1.3 Build 182)  -->
  <defs>
    <style>
      .st0 {
        fill: #00302c;
      }

      .st1 {
        fill: #7fb900;
      }
    </style>
  </defs>
  <path class="st1" d="M451.7,403.43c.34-.4-.12-.97-.58-.73l-25.78,13.32c-.35.18-.78.04-.96-.31l-11.31-22.19h0c-.22-.43-.88-.29-.9.2l-1.33,28.24c0,.28-.19.53-.47.63l-27.14,9.83c-.47.16-.4.85.09.92l25.06,3.73c.39.06.67.44.59.83l-5.14,27.98c-.09.51.58.78.87.35l16.94-25.57c.17-.26.51-.38.81-.28l23.87,7.87c.45.15.81-.36.53-.74l-14.93-19.73c-.19-.26-.18-.63.03-.88l19.76-23.47Z"/>
  <path class="st0" d="M750.72,259.19c-35.19,14.8-66.7,36.93-93.48,56.52-3.12,2.09-6.26,4.24-9.47,6.42h0c-25.73,17.55-54.9,37.45-85.97,39.8-10.57.91-20.86-2.25-28.96-8.9-7.99-6.56-13-15.78-14.11-26.01l-.05-.29c-1.24-9.68-3.26-15.02-8.65-22.88-7.36-10.61-21.22-17.2-35.49-17.2-1.52,0-3.05.08-4.58.23-25.04,2.23-48.42,16.18-70.2,30.27-11.67,7.4-21.34,14.33-31.58,21.67-4.95,3.55-10.07,7.22-15.76,11.2-7.93,5.49-15.37,10.37-22.75,14.93-.57.45-2.47,1.53-4.88,2.92-3.86,2.21-8.67,4.96-11,6.77-7.93,6.89-12.77,16.43-13.63,26.87v162.49c-.37,14.92,11.02,28.44,25.92,30.79,5.35.91,11.26.33,16.23-1.6,1.58-.53,5.43-2.86,7.72-4.26,1.44-.87,1.85-1.12,2.03-1.19,8.33-5.02,17.61-11.04,26.14-16.93,5.69-3.97,10.95-7.72,16.03-11.35,11.88-8.48,23.1-16.48,36.38-24.82,26.12-16.32,51.81-30.68,78.83-27.3,16.68,2.11,30.11,16.34,32.69,34.59,1.38,15.57,7.69,26.29,19.85,33.75,12.19,7.18,32.26,14.95,77.71-10.86v-46.46c-15.94,9.53-33.63,18.23-54.68,20.12-22.34,2.39-41.68-11.33-44.96-31.91-.16-.98-.24-1.99-.31-2.95l-.05-.64c-2.07-25.7-21.39-41.58-48.04-39.5-17.71,1.42-34.34,9.34-46.84,16.08-19.28,10.65-37.25,23.37-54.64,35.66-16.88,11.94-34.33,24.29-53.04,34.8-2.35,1.32-5.26,1.47-7.62.16-2.4-1.34-3.84-3.8-3.84-6.54v-121.54c0-5.01,2.63-9.65,6.92-12.25,13.75-8.35,27.13-17.88,40.07-27.1,6.7-4.77,13.63-9.71,20.39-14.32,1.44-.93,2.92-1.91,4.44-2.9,31.01-20.31,77.87-51.01,110.71-23.26,10.61,9.43,12.37,18.49,14.06,27.25,1.73,8.91,3.35,17.33,13.57,26.25,8.23,7.16,19.91,10.55,32.85,9.54,33.35-3.1,68.8-28.46,100.07-50.83,8.4-6.01,16.32-11.67,23.81-16.64,27.98-18.85,53.65-32.28,78.44-41.06v-45.26c-6.74,2.23-13.57,4.8-20.29,7.66Z"/>
  <path class="st0" d="M664.62,405.92c-17.5,12.45-35.45,24.2-54.91,33.48-6.38,3.05-12.97,5.68-19.81,7.48-17.4,4.59-31.86,3.71-43.08-2.64h.02c-10.73-6.08-15.85-15.87-18.07-21.72,1.59,9.63,4.41,21.9,6.28,27.56,4.32,13.1,12.16,23.01,24.38,29.26,7.83,3.84,17.29,7.06,28.26,7,8.33-.05,16.58-1.61,24.48-4.24,26.5-8.83,47.57-24.5,70.83-41.52,12.42-9.08,21.62-16.01,35.17-24.86v-46.52c-14.44,8.53-26.51,17.26-44.41,30.25-3.02,2.12-6.06,4.29-9.13,6.47Z"/>
  <g>
    <path class="st0" d="M304.84,727.7h21.39v9.62h-21.39v17.78h-12.39v-51.09h38.01l1.46,9.7h-27.09v14.01Z"/>
    <path class="st0" d="M420.87,745.4l-1.46,9.7h-35.7v-51.09h12.46v41.4h24.7Z"/>
    <path class="st0" d="M508.54,745.78h-22.08l-3.62,9.31h-12.7l21.7-51.09h12.7l20.93,51.09h-13.47l-3.46-9.31ZM505.08,736.7l-7.46-19.93-7.7,19.93h15.16Z"/>
    <path class="st0" d="M615.61,729.85v23.08c-6.31,2.23-12.31,3.54-20.08,3.54-16.62,0-27.55-9.77-27.55-27.16s11.54-26.7,28.47-26.7c6.62,0,10.77.85,16.16,2.23l1.85,11.16c-5.54-1.92-10.77-3.46-17.78-3.46-9.31,0-15.93,4.62-15.93,16.7s6.31,17.39,15.55,17.39c2.61,0,4.85-.23,7.46-.77v-16.01h11.85Z"/>
    <path class="st0" d="M714.63,729.85v23.08c-6.31,2.23-12.31,3.54-20.08,3.54-16.62,0-27.55-9.77-27.55-27.16s11.54-26.7,28.47-26.7c6.62,0,10.77.85,16.16,2.23l1.85,11.16c-5.54-1.92-10.77-3.46-17.78-3.46-9.31,0-15.93,4.62-15.93,16.7s6.31,17.39,15.55,17.39c2.61,0,4.85-.23,7.46-.77v-16.01h11.85Z"/>
  </g>
</svg>