<?xml version="1.0" encoding="UTF-8"?>
<svg id="Layer_1" xmlns="http://www.w3.org/2000/svg" version="1.1" viewBox="207 457 580 86">
  <!-- Generator: Adobe Illustrator 30.3.0, SVG Export Plug-In . SVG Version: 2.1.3 Build 182)  -->
  <defs>
    <style>
      .st0 {
        fill: #fff;
      }
    </style>
  </defs>
  <path class="st0" d="M229.7,497.49h29.1v13.08h-29.1v24.18h-16.85v-69.51h51.71l1.99,13.19h-36.85v19.05Z"/>
  <path class="st0" d="M387.54,521.56l-1.99,13.19h-48.57v-69.51h16.96v56.32h33.6Z"/>
  <path class="st0" d="M506.8,522.09h-30.04l-4.92,12.67h-17.27l29.52-69.51h17.27l28.47,69.51h-18.32l-4.71-12.67ZM502.09,509.73l-10.15-27.11-10.47,27.11h20.62Z"/>
  <path class="st0" d="M652.45,500.42v31.4c-8.58,3.04-16.75,4.82-27.32,4.82-22.61,0-37.47-13.29-37.47-36.95s15.7-36.32,38.73-36.32c9,0,14.65,1.15,21.98,3.03l2.51,15.18c-7.54-2.62-14.65-4.71-24.18-4.71-12.67,0-21.67,6.28-21.67,22.72s8.58,23.66,21.15,23.66c3.56,0,6.59-.31,10.15-1.05v-21.77h16.12Z"/>
  <path class="st0" d="M787.15,500.42v31.4c-8.58,3.04-16.75,4.82-27.32,4.82-22.61,0-37.47-13.29-37.47-36.95s15.7-36.32,38.73-36.32c9,0,14.65,1.15,21.98,3.03l2.51,15.18c-7.54-2.62-14.65-4.71-24.18-4.71-12.67,0-21.67,6.28-21.67,22.72s8.58,23.66,21.15,23.66c3.56,0,6.59-.31,10.15-1.05v-21.77h16.12Z"/>
</svg>