<?xml version="1.0" encoding="UTF-8"?>
<svg id="Layer_1" xmlns="http://www.w3.org/2000/svg" version="1.1" viewBox="0 0 1080 1080">
  <!-- Generator: Adobe Illustrator 30.3.0, SVG Export Plug-In . SVG Version: 2.1.3 Build 182)  -->
  <defs>
    <style>
      .st0 {
        fill: #033;
      }
    </style>
  </defs>
  <path class="st0" d="M626.89,525.32c57.52,0,54.94-60.55,54.94-60.55l-299.75,82.56-33.33,32.17-.41,64.9,15.96,16.63,40.82,13.72,36.54-61.19,113.11,20.08,54.49-60.13-40.06,95.07-106.33-26.95,35.39,122.92,32.93-45.75,52.03,102.83h29.67l121.36-186.9-107.37-109.41Z"/>
  <path class="st0" d="M669.8,258.37s5.74,35.4,4.9,75.8c-1.03,49.24-34.04,92.11-81.22,106.23h0c8.1-10.09,13.08-22.81,13.3-36.75.53-33.31-26.05-60.73-59.35-61.26,0,0,1.84,8.8,2.71,22.03,3.39,51.33-30.02,97.94-79.3,112.69h-.02c8.49-10.2,13.72-23.24,13.95-37.56.53-33.31-26.05-60.73-59.35-61.26,0,0,6.4,33.3-.68,67.78-6.06,29.52-28.05,53.23-56.92,61.87l-18.84,5.5,4.58,15.32,265.97-79.46c1.2-.32,2.4-.65,3.45-.93,0,0-1.17.31-3.17.85l5.35-1.6c-.74.23-1.42.55-2.17.75l59.43-15.97c33.34-8.62,72.88-41.96,73.57-85.07.77-48.36-37.82-88.18-86.17-88.95Z"/>
  <path class="st0" d="M348.37,404.2c-23.17,2.14-40.8,22.73-38.08,45.84,2.71,23.07,19.05,34.65,32.35,36.92,9.03,1.54,18.93.07,26.74-4.52l.1-.08c-26.94-27.3-21.12-78.16-21.12-78.16Z"/>
</svg>