<?xml version="1.0" encoding="UTF-8"?>
<svg id="Layer_1" xmlns="http://www.w3.org/2000/svg" version="1.1" viewBox="0 0 1080 1080">
  <!-- Generator: Adobe Illustrator 30.3.0, SVG Export Plug-In . SVG Version: 2.1.3 Build 182)  -->
  <defs>
    <style>
      .st0 {
        fill: #033;
      }
    </style>
  </defs>
  <path class="st0" d="M353.7,561.99l-58.95-22.07,58.95-22.07c6.12-95.32,71.53-170.56,161.39-198.33,1.48-.46,1.09-2.64-.46-2.59-293.78,10.78-293.6,435.29.01,445.97,1.55.06,1.94-2.13.46-2.59-89.87-27.76-155.29-103-161.4-198.33Z"/>
  <path class="st0" d="M726.3,562.14l58.95-22.07-58.95-22.07c-6.12-95.32-71.53-170.56-161.39-198.33-1.48-.46-1.09-2.64.46-2.59,293.78,10.78,293.6,435.29-.01,445.97-1.55.06-1.94-2.13-.46-2.59,89.87-27.76,155.29-103,161.4-198.33Z"/>
  <polygon class="st0" points="578.07 561.97 684.54 539.93 578.07 517.89 599.01 480.96 562.09 501.91 540.05 404.04 518 501.91 481.08 480.96 502.02 517.89 395.55 539.93 502.02 561.97 481.08 598.89 518 577.95 540.05 675.81 562.09 577.95 599.01 598.89 578.07 561.97"/>
</svg>