<?xml version="1.0" encoding="UTF-8"?>
<svg id="Layer_1" xmlns="http://www.w3.org/2000/svg" version="1.1" viewBox="0 0 1080 1080">
  <!-- Generator: Adobe Illustrator 30.3.0, SVG Export Plug-In . SVG Version: 2.1.3 Build 182)  -->
  <defs>
    <style>
      .st0 {
        fill: #033;
      }
    </style>
  </defs>
  <path class="st0" d="M553.55,552.01l-1.43-6.1,3.3,5.32c31.01,50.02,90.53,78.83,172.15,83.35v-51.35c-5.82.25-15.46,0-21.37-.15l-1.64-.04c-74.6-3.06-133.87-53.35-151-121.91l-1.38-5.51,3.22,4.67c28.86,41.86,82.96,72.55,134.91,76.64v-46.82c-62.5-.14-118.64-43.96-136.74-106.88l-1.54-5.34,3.35,4.44c9.35,12.39,30.17,35.3,46.21,44,15.12,8.19,32.43,13.76,51.46,16.56v-37.92c-.51,0-1.03,0-1.54,0-53.85,0-86.58-42.43-96.25-101.79h-30.64c-9.67,59.36-42.26,101.79-96.1,101.79-.52,0-1.03,0-1.55,0v37.92c19.03-2.79,36.34-8.36,51.46-16.56,16.04-8.69,36.86-31.6,46.21-44l3.35-4.44-1.54,5.34c-18.1,62.92-74.24,106.74-136.74,106.88v46.82c51.95-4.09,106.05-34.78,134.91-76.64l3.22-4.67-1.38,5.51c-17.14,68.56-76.41,118.85-150.99,121.91l-1.66.04c-5.92.15-15.56.41-21.37.15v51.35c81.62-4.52,141.13-33.33,172.15-83.35l3.3-5.32-1.43,6.1c-14.55,62.29-62.46,117.86-128.16,135.83-25.21,7.56-52.43,11.43-83.13,11.81v76.98c127.77-24.33,184.38-87.59,209.37-136.45l3.21-6.27-26.44,142.94h77.39l-26.44-142.94,3.21,6.27c24.99,48.87,81.6,112.12,209.37,136.45v-76.98c-30.7-.38-57.91-4.25-83.14-11.81-65.7-17.97-113.61-73.54-128.15-135.83Z"/>
</svg>