<?xml version="1.0" encoding="UTF-8"?>
<svg id="Layer_1" xmlns="http://www.w3.org/2000/svg" version="1.1" viewBox="314 307 453 467">
  <!-- Generator: Adobe Illustrator 30.3.0, SVG Export Plug-In . SVG Version: 2.1.3 Build 182)  -->
  <defs>
    <style>
      .st0 {
        fill: #033;
      }
    </style>
  </defs>
  <path class="st0" d="M765.43,492.16l-.71-20.49-101.13,89.37h52.3c-33.27,49.55-93.51,87.05-150.83,93.43l-14.91-311.65c11.45,1,30.52,3.22,44.08,7.15l11.18,3.24-.59-36.97-6.35-1.63c-38.22-9.86-78.74-9.86-116.97,0l-6.35,1.63-.59,36.97,11.18-3.24c13.57-3.93,32.63-6.15,44.09-7.15l-14.91,311.65c-57.32-6.37-117.56-43.88-150.83-93.43h52.31l-101.13-89.36-.71,20.48c-3.73,107.51,89.23,207.57,200.44,217.58l10.08,63.05h29.57l10.34-63.05c111.21-10.01,204.16-110.06,200.44-217.58Z"/>
</svg>